<svg width="262" height="66" viewBox="0 0 262 66" fill="none" xmlns="http://www.w3.org/2000/svg">
<path d="M12.2709 32.2617C12.2709 20.3201 21.9847 10.6063 33.9263 10.6063C35.9868 10.6063 37.9771 10.9007 39.867 11.4392C40.0476 11.4191 40.2283 11.4024 40.4089 11.3823C42.6132 11.1716 44.6135 11.3589 46.741 11.9577C47.6809 12.2219 48.6443 12.2888 49.5708 12.6166C49.8786 12.7237 50.1896 12.824 50.5007 12.9244C46.0452 9.10106 40.2584 6.78967 33.9297 6.78967C19.864 6.78967 8.46094 18.1927 8.46094 32.2584C8.46094 44.9058 17.6797 55.399 29.7651 57.3859C30.1465 56.165 30.4408 54.9274 30.665 53.6663C20.2687 52.0875 12.2742 43.0895 12.2742 32.2584L12.2709 32.2617Z" fill="#FFDD01"/>
<path d="M18.8768 32.2616C18.8768 25.779 23.0011 20.243 28.7612 18.1323C28.808 17.5771 29.0522 17.0118 29.5673 16.5067C29.9855 16.0919 30.4671 15.7407 30.9555 15.4129C31.3636 15.1386 31.3435 15.1787 31.7683 14.8041C32.3136 14.3257 32.8688 13.824 33.4709 13.4025C23.262 13.6434 15.0635 21.9958 15.0635 32.2616C15.0635 41.7078 22.0043 49.5317 31.0659 50.9099C31.183 50.0167 31.3 49.127 31.4606 48.2439C31.5275 47.8693 31.6111 47.5047 31.688 47.1434C24.4495 46.0563 18.8801 39.7978 18.8801 32.2616H18.8768Z" fill="#FFDD01"/>
<path d="M64.3388 40.9116C64.5094 42.3031 65.2152 43.6411 63.7099 44.5409C64.9241 46.0528 63.3353 47.1567 63.1781 48.5716C63.0944 49.3276 63.4156 50.0735 63.2884 50.9432C62.8469 53.9604 59.2109 54.994 56.5951 54.7632C55.1033 54.6294 52.2901 53.4921 50.9722 54.5759C49.3298 55.9239 48.4166 62.4399 49.012 64.5239L41.8738 65.1527C24.6137 66.0425 7.32349 60.0884 1.6437 42.4035C-7.95641 12.5294 26.5705 -12.7353 51.387 7.36474C56.3041 11.3453 61.3517 18.072 63.1546 24.18C63.9039 26.7222 63.3353 29.1573 64.2384 31.3817C64.9877 33.2181 67.6236 35.8339 67.8209 37.5499C68.0183 39.2659 65.9176 40.9183 64.3354 40.9116H64.3388ZM52.3269 12.5361C39.8635 -0.465869 18.2716 1.78865 8.45744 16.8244C-2.63788 33.8169 7.31345 56.5762 27.0388 60.162C29.0425 56.1714 31.4375 51.5955 31.6248 47.0329C31.7921 42.9755 29.0291 41.7913 27.2328 38.5668C22.9044 30.8031 25.3128 17.8312 33.508 13.4961C39.0306 10.5759 46.4699 10.8101 52.3303 12.5361H52.3269ZM39.9003 20.4068H43.9377C44.3759 20.4068 46.3026 22.0258 46.617 22.4908C48.2092 24.8356 46.9549 26.6586 47.6138 28.7425C47.8781 29.5821 48.7143 30.3716 48.9217 31.3684C49.7112 35.185 47.4633 38.7206 43.4192 38.627C43.7537 41.1759 42.4994 44.3703 44.5666 46.2837C46.3561 47.9428 55.227 51.8932 57.6087 51.8965C61.2279 51.9032 60.0773 49.816 60.4184 47.6484C60.5556 46.7653 61.8869 45.7418 60.6225 45.3471C59.7996 45.0895 58.8798 45.5544 59.1574 44.1161C59.3481 43.126 61.3316 43.6679 61.6126 42.8383C61.9438 41.507 60.8533 40.3597 61.335 39.0351C61.8401 38.0282 64.7736 38.9314 64.7569 37.6937C64.7502 37.2154 61.4788 32.6896 61.0172 31.278C60.3516 29.2443 60.8232 27.6956 60.5589 25.7321C59.3882 17.102 47.6941 12.3655 39.9906 14.3792L39.9003 20.4002V20.4068ZM36.6891 25.5849C38.2378 25.2504 40.9071 25.8324 42.593 25.5849V29.5186C41.5996 29.7661 40.5894 30.6425 40.2181 31.5925L36.6958 31.7898C36.0134 31.6594 35.592 30.6258 34.8427 30.3281C31.0562 28.8329 29.3134 34.9609 33.0531 35.844C34.8728 36.2721 35.8663 35.4559 36.5219 33.8537H39.9739C42.9175 39.9884 50.3768 33.0609 44.4595 29.5721C44.2354 27.3377 45.473 23.8656 42.2886 23.5043C40.9272 23.3504 38.0104 23.9659 37.144 23.6782C36.7761 23.5578 36.368 22.1429 35.505 21.7984C31.2401 20.079 30.4574 26.9597 34.4212 26.8359C35.7793 26.7924 35.99 25.7287 36.6992 25.5748L36.6891 25.5849ZM39.3283 42.2028C39.3785 42.1191 39.7632 41.992 39.9538 41.6977C41.9575 38.6136 37.3013 36.9946 36.4683 39.6572C35.8796 41.5405 37.4217 41.6943 37.609 42.8918C37.8666 44.5643 36.7326 45.996 38.0305 47.8491C38.6158 48.6854 40.9439 50.3344 41.1915 50.9031C41.8805 52.4953 40.4188 55.1211 41.546 56.7635C42.1883 57.0378 42.8606 56.8471 42.9978 56.1279C43.1349 55.4088 43.1115 51.2677 42.961 50.5853C42.6164 49.0399 39.7665 47.8056 39.3685 46.5144C39.2313 46.0696 39.1845 42.4503 39.3283 42.1994V42.2028Z" fill="#0007CF"/>
<path d="M58.3343 31.7998H54.9157C54.7786 31.7998 54.2501 31.1342 54.1965 30.8632C53.6914 28.321 56.5046 28.8562 58.1403 28.99C58.7424 29.8965 58.3042 30.8097 58.3343 31.7998Z" fill="#FFDD01"/>
<path d="M42.9477 31.4287C44.7039 31.0374 45.4197 33.5528 44.2021 34.1348C41.9108 35.232 40.8739 31.8937 42.9477 31.4287Z" fill="#FFDD01"/>
<path d="M34.6687 32.2648C35.9398 33.7332 32.9493 35.0913 32.8356 33.1445C32.7654 31.9336 34.1335 31.646 34.6687 32.2648Z" fill="#FFDD01"/>
<path d="M66.5529 42.3899C66.5061 42.2862 66.496 42.1658 66.5228 42.0554C66.5897 41.7611 66.8841 41.5771 67.1784 41.644C67.64 41.741 67.9712 42.7545 68.0548 43.0422C68.1919 43.4871 68.2388 43.9554 68.1919 44.4204C68.0782 45.3268 67.6467 46.1631 66.9744 46.7819C66.4693 47.287 65.6999 46.4976 66.205 45.9992C67.2888 44.9489 67.3758 43.7213 66.5997 42.487C66.583 42.4568 66.5663 42.4234 66.5529 42.3899Z" fill="#FFDD01"/>
<path d="M70.1158 40.4433C70.0054 40.159 70.1459 39.8412 70.4302 39.7309C70.651 39.6439 70.9018 39.7108 71.0524 39.8914C71.0858 39.9349 71.1226 39.9918 71.1527 40.0386C71.728 40.8983 72.1562 41.8449 72.4271 42.845C72.6881 43.8117 72.7616 44.8186 72.6379 45.812C72.5108 46.8055 72.1963 47.7655 71.7046 48.6385C71.1795 49.5718 70.5038 50.4114 69.7043 51.1272C69.1792 51.6223 68.4332 50.8128 68.9584 50.3177C69.6675 49.6889 70.2663 48.9463 70.7312 48.1201C71.156 47.3675 71.4303 46.5379 71.5407 45.6782C71.6411 44.8186 71.5775 43.9489 71.3534 43.1126C71.1092 42.2329 70.7245 41.4 70.2161 40.644C70.176 40.5838 70.1425 40.5203 70.1158 40.4534V40.4433Z" fill="#FFDD01"/>
<path d="M68.1851 41.5972C68.0681 41.3162 68.2018 40.9951 68.4862 40.878C68.7136 40.7844 68.9779 40.8546 69.1284 41.0453H69.1384C69.6001 41.6909 69.9513 42.4067 70.1787 43.1627C70.3861 43.8417 70.4463 44.5575 70.356 45.2633C70.259 45.9691 70.0148 46.6448 69.6402 47.2502C69.2187 47.9226 68.6902 48.5247 68.0747 49.0298C67.476 49.4914 66.8304 48.6217 67.3656 48.1835C67.8807 47.7587 68.3256 47.2569 68.6869 46.695C69.3157 45.7316 69.4763 44.5375 69.1284 43.4403C68.9344 42.8215 68.6467 42.2395 68.2721 41.7109C68.242 41.6775 68.2152 41.6407 68.1985 41.6006H68.1885L68.1851 41.5972Z" fill="#FFDD01"/>
<path d="M87.2989 37.9838V20.4556H90.504V35.2544H98.0662V37.9838H87.2989ZM105.4 38.2843C104.098 38.2843 102.971 38.0005 102.02 37.4329C101.085 36.8653 100.359 36.0891 99.8411 35.1042C99.3236 34.1192 99.0649 33.0091 99.0649 31.7738C99.0649 30.455 99.332 29.3115 99.8662 28.3433C100.4 27.375 101.143 26.6238 102.095 26.0896C103.046 25.5388 104.148 25.2633 105.4 25.2633C106.635 25.2633 107.712 25.5304 108.63 26.0646C109.565 26.5988 110.291 27.3333 110.809 28.2682C111.343 29.203 111.61 30.2797 111.61 31.4984C111.61 31.7154 111.602 31.9324 111.585 32.1494C111.568 32.3497 111.543 32.5417 111.51 32.7253H102.295C102.345 33.3096 102.495 33.8271 102.746 34.2778C103.013 34.7119 103.363 35.0541 103.797 35.3045C104.248 35.5382 104.757 35.655 105.325 35.655C105.909 35.655 106.41 35.5298 106.827 35.2794C107.261 35.029 107.604 34.6451 107.854 34.1276H111.285C111.051 34.8621 110.675 35.5465 110.158 36.1809C109.64 36.8152 108.981 37.3244 108.18 37.7084C107.395 38.0923 106.468 38.2843 105.4 38.2843ZM102.32 30.5969H108.305C108.288 29.7622 107.979 29.1028 107.378 28.6187C106.794 28.1346 106.101 27.8925 105.3 27.8925C104.615 27.8925 103.981 28.1096 103.397 28.5436C102.813 28.9609 102.454 29.6454 102.32 30.5969ZM117.112 38.2843C116.378 38.2843 115.693 38.134 115.059 37.8336C114.425 37.5331 113.907 37.1074 113.506 36.5565C113.123 35.9889 112.931 35.3212 112.931 34.5533C112.931 33.6351 113.156 32.8839 113.607 32.2996C114.057 31.7154 114.675 31.2813 115.46 30.9975C116.261 30.7138 117.154 30.5719 118.139 30.5719H121.094C121.094 30.0043 121.002 29.5285 120.818 29.1446C120.651 28.7606 120.393 28.4685 120.042 28.2682C119.708 28.0511 119.291 27.9426 118.79 27.9426C118.206 27.9426 117.68 28.0762 117.212 28.3433C116.762 28.5937 116.486 29.0194 116.386 29.6203H113.181C113.264 28.7189 113.573 27.9426 114.107 27.2916C114.642 26.6405 115.326 26.1397 116.161 25.7892C116.995 25.4386 117.889 25.2633 118.84 25.2633C120.009 25.2633 120.994 25.4803 121.795 25.9144C122.613 26.3484 123.239 26.9661 123.673 27.7673C124.107 28.5519 124.324 29.4868 124.324 30.5719V34.3529C124.357 34.7202 124.491 34.9706 124.725 35.1042C124.958 35.2377 125.267 35.3045 125.651 35.3045V37.9838C124.866 37.9838 124.207 37.9087 123.673 37.7584C123.155 37.6082 122.73 37.3912 122.396 37.1074C122.062 36.8069 121.778 36.4313 121.544 35.9806C121.16 36.6316 120.56 37.1825 119.742 37.6332C118.94 38.0673 118.064 38.2843 117.112 38.2843ZM118.039 35.7051C118.59 35.7051 119.09 35.5799 119.541 35.3295C120.009 35.0791 120.384 34.7286 120.668 34.2778C120.952 33.8271 121.094 33.3096 121.094 32.7253V32.6252H118.339C117.972 32.6252 117.621 32.6836 117.288 32.8005C116.954 32.9006 116.687 33.0675 116.486 33.3013C116.286 33.5183 116.186 33.8188 116.186 34.2027C116.186 34.7202 116.361 35.1042 116.712 35.3546C117.079 35.5883 117.521 35.7051 118.039 35.7051ZM132.359 38.2843C131.157 38.2843 130.122 37.9921 129.254 37.4079C128.402 36.8069 127.743 36.014 127.276 35.029C126.825 34.0274 126.599 32.9257 126.599 31.7237C126.599 30.5218 126.833 29.4367 127.301 28.4685C127.768 27.4836 128.436 26.7073 129.304 26.1397C130.172 25.5555 131.19 25.2633 132.359 25.2633C133.16 25.2633 133.92 25.4303 134.637 25.7641C135.372 26.098 135.99 26.5821 136.49 27.2165V20.4556H139.721V37.9838H136.49V36.2059C136.073 36.8904 135.489 37.4079 134.738 37.7584C133.986 38.109 133.193 38.2843 132.359 38.2843ZM133.185 35.4798C133.853 35.4798 134.429 35.3212 134.913 35.004C135.414 34.6868 135.806 34.2528 136.09 33.7019C136.374 33.1343 136.515 32.4916 136.515 31.7738C136.515 30.889 136.34 30.1796 135.99 29.6454C135.639 29.0945 135.205 28.6938 134.687 28.4434C134.17 28.193 133.661 28.0678 133.16 28.0678C132.509 28.0678 131.933 28.2264 131.432 28.5436C130.948 28.8608 130.564 29.2948 130.28 29.8457C129.997 30.3799 129.855 31.0059 129.855 31.7237C129.855 32.4248 129.997 33.0592 130.28 33.6268C130.564 34.1944 130.956 34.6451 131.457 34.979C131.958 35.3128 132.534 35.4798 133.185 35.4798ZM142.441 37.9838V20.4556H148.526C149.745 20.4556 150.796 20.6559 151.681 21.0565C152.583 21.4405 153.284 22.0081 153.785 22.7593C154.285 23.5105 154.536 24.4286 154.536 25.5137C154.536 26.7657 154.202 27.7673 153.534 28.5186C152.866 29.2698 151.957 29.7873 150.805 30.0711L155.688 37.9838H151.907L147.6 30.5969H145.647V37.9838H142.441ZM145.647 27.8675H148.451C149.202 27.8675 149.778 27.7673 150.179 27.567C150.596 27.35 150.88 27.0662 151.03 26.7157C151.197 26.3651 151.281 25.9644 151.281 25.5137C151.281 25.063 151.197 24.6623 151.03 24.3118C150.88 23.9612 150.596 23.6858 150.179 23.4855C149.778 23.2851 149.202 23.185 148.451 23.185H145.647V27.8675ZM161.912 38.2843C160.61 38.2843 159.483 38.0005 158.532 37.4329C157.597 36.8653 156.871 36.0891 156.353 35.1042C155.836 34.1192 155.577 33.0091 155.577 31.7738C155.577 30.455 155.844 29.3115 156.378 28.3433C156.912 27.375 157.655 26.6238 158.607 26.0896C159.558 25.5388 160.66 25.2633 161.912 25.2633C163.147 25.2633 164.224 25.5304 165.142 26.0646C166.077 26.5988 166.803 27.3333 167.321 28.2682C167.855 29.203 168.122 30.2797 168.122 31.4984C168.122 31.7154 168.114 31.9324 168.097 32.1494C168.08 32.3497 168.055 32.5417 168.022 32.7253H158.807C158.857 33.3096 159.007 33.8271 159.258 34.2778C159.525 34.7119 159.875 35.0541 160.309 35.3045C160.76 35.5382 161.269 35.655 161.837 35.655C162.421 35.655 162.922 35.5298 163.339 35.2794C163.773 35.029 164.116 34.6451 164.366 34.1276H167.796C167.563 34.8621 167.187 35.5465 166.67 36.1809C166.152 36.8152 165.493 37.3244 164.691 37.7084C163.907 38.0923 162.98 38.2843 161.912 38.2843ZM158.832 30.5969H164.817C164.8 29.7622 164.491 29.1028 163.89 28.6187C163.306 28.1346 162.613 27.8925 161.812 27.8925C161.127 27.8925 160.493 28.1096 159.909 28.5436C159.324 28.9609 158.966 29.6454 158.832 30.5969ZM173.624 38.2843C172.89 38.2843 172.205 38.134 171.571 37.8336C170.937 37.5331 170.419 37.1074 170.018 36.5565C169.634 35.9889 169.442 35.3212 169.442 34.5533C169.442 33.6351 169.668 32.8839 170.119 32.2996C170.569 31.7154 171.187 31.2813 171.972 30.9975C172.773 30.7138 173.666 30.5719 174.651 30.5719H177.606C177.606 30.0043 177.514 29.5285 177.33 29.1446C177.163 28.7606 176.904 28.4685 176.554 28.2682C176.22 28.0511 175.803 27.9426 175.302 27.9426C174.718 27.9426 174.192 28.0762 173.724 28.3433C173.274 28.5937 172.998 29.0194 172.898 29.6203H169.693C169.776 28.7189 170.085 27.9426 170.619 27.2916C171.154 26.6405 171.838 26.1397 172.673 25.7892C173.507 25.4386 174.4 25.2633 175.352 25.2633C176.521 25.2633 177.505 25.4803 178.307 25.9144C179.125 26.3484 179.751 26.9661 180.185 27.7673C180.619 28.5519 180.836 29.4868 180.836 30.5719V34.3529C180.869 34.7202 181.003 34.9706 181.236 35.1042C181.47 35.2377 181.779 35.3045 182.163 35.3045V37.9838C181.378 37.9838 180.719 37.9087 180.185 37.7584C179.667 37.6082 179.242 37.3912 178.908 37.1074C178.574 36.8069 178.29 36.4313 178.056 35.9806C177.672 36.6316 177.071 37.1825 176.253 37.6332C175.452 38.0673 174.576 38.2843 173.624 38.2843ZM174.551 35.7051C175.102 35.7051 175.602 35.5799 176.053 35.3295C176.521 35.0791 176.896 34.7286 177.18 34.2778C177.464 33.8271 177.606 33.3096 177.606 32.7253V32.6252H174.851C174.484 32.6252 174.133 32.6836 173.799 32.8005C173.466 32.9006 173.198 33.0675 172.998 33.3013C172.798 33.5183 172.698 33.8188 172.698 34.2027C172.698 34.7202 172.873 35.1042 173.224 35.3546C173.591 35.5883 174.033 35.7051 174.551 35.7051ZM189.346 38.2843C188.094 38.2843 187.001 38.0088 186.066 37.4579C185.131 36.8904 184.405 36.1225 183.888 35.1542C183.37 34.1693 183.111 33.0425 183.111 31.7738C183.111 30.5218 183.362 29.4033 183.863 28.4184C184.38 27.4335 185.106 26.6656 186.041 26.1147C186.976 25.5471 188.078 25.2633 189.346 25.2633C190.849 25.2633 192.117 25.6389 193.152 26.3901C194.204 27.1413 194.914 28.2515 195.281 29.7205H191.85C191.7 29.2364 191.408 28.8274 190.974 28.4935C190.557 28.143 190.006 27.9677 189.321 27.9677C188.637 27.9677 188.078 28.143 187.644 28.4935C187.21 28.8441 186.884 29.3115 186.667 29.8958C186.467 30.4634 186.367 31.0894 186.367 31.7738C186.367 32.4582 186.467 33.0926 186.667 33.6769C186.884 34.2444 187.21 34.7035 187.644 35.0541C188.078 35.3879 188.637 35.5549 189.321 35.5549C189.972 35.5549 190.507 35.413 190.924 35.1292C191.341 34.8287 191.65 34.3947 191.85 33.8271H195.281C195.064 34.7619 194.672 35.5632 194.104 36.231C193.553 36.8987 192.869 37.4079 192.051 37.7584C191.249 38.109 190.348 38.2843 189.346 38.2843ZM197.133 37.9838V20.4556H200.313V27.0161C200.747 26.4319 201.323 25.9978 202.04 25.714C202.775 25.4136 203.509 25.2633 204.244 25.2633C205.68 25.2633 206.857 25.7307 207.775 26.6656C208.693 27.5837 209.152 28.9192 209.152 30.672V37.9838H205.972V31.0977C205.972 30.1629 205.73 29.4117 205.246 28.8441C204.778 28.2598 204.085 27.9677 203.167 27.9677C202.249 27.9677 201.54 28.2598 201.039 28.8441C200.555 29.4117 200.313 30.1629 200.313 31.0977V37.9838H197.133Z" fill="#0007CF"/>
<path d="M211.177 37.9837L217.587 20.4555H221.193L227.603 37.9837H224.198L222.821 34.0023H215.935L214.532 37.9837H211.177ZM216.836 31.4231H221.919L219.365 24.1364L216.836 31.4231ZM230.942 23.9611C230.375 23.9611 229.882 23.7608 229.465 23.3601C229.064 22.9428 228.864 22.4503 228.864 21.8828C228.864 21.2985 229.064 20.806 229.465 20.4054C229.882 20.0047 230.375 19.8044 230.942 19.8044C231.526 19.8044 232.019 20.0047 232.42 20.4054C232.82 20.806 233.021 21.2985 233.021 21.8828C233.021 22.4503 232.82 22.9428 232.42 23.3601C232.019 23.7608 231.526 23.9611 230.942 23.9611ZM229.34 37.9837V25.5637H232.545V37.9837H229.34Z" fill="#FFDD01"/>
<path d="M224.887 47.61C224.504 47.61 224.181 47.4787 223.918 47.2161C223.656 46.9426 223.525 46.6198 223.525 46.2478C223.525 45.8649 223.656 45.5421 223.918 45.2796C224.181 45.017 224.504 44.8857 224.887 44.8857C225.27 44.8857 225.592 45.017 225.855 45.2796C226.118 45.5421 226.249 45.8649 226.249 46.2478C226.249 46.6198 226.118 46.9426 225.855 47.2161C225.592 47.4787 225.27 47.61 224.887 47.61ZM231.297 47.61C230.476 47.61 229.76 47.4294 229.147 47.0684C228.534 46.6964 228.058 46.1931 227.719 45.5585C227.38 44.913 227.21 44.1745 227.21 43.343C227.21 42.5224 227.374 41.7894 227.703 41.1439C228.042 40.4984 228.518 39.9951 229.13 39.6341C229.743 39.2621 230.465 39.0761 231.297 39.0761C232.281 39.0761 233.113 39.3222 233.791 39.8146C234.481 40.3069 234.946 41.0345 235.186 41.9973H232.938C232.839 41.68 232.648 41.4119 232.363 41.1931C232.09 40.9634 231.729 40.8485 231.28 40.8485C230.832 40.8485 230.465 40.9634 230.181 41.1931C229.896 41.4229 229.683 41.7292 229.541 42.1122C229.409 42.4842 229.344 42.8944 229.344 43.343C229.344 43.7916 229.409 44.2073 229.541 44.5903C229.683 44.9623 229.896 45.2631 230.181 45.4929C230.465 45.7117 230.832 45.8211 231.28 45.8211C231.707 45.8211 232.057 45.7281 232.331 45.5421C232.604 45.3452 232.807 45.0607 232.938 44.6887H235.186C235.044 45.3014 234.787 45.8266 234.415 46.2642C234.054 46.7019 233.605 47.0356 233.069 47.2653C232.544 47.4951 231.953 47.61 231.297 47.61ZM240.371 47.61C239.551 47.61 238.818 47.4349 238.172 47.0848C237.538 46.7237 237.04 46.2205 236.679 45.575C236.318 44.9294 236.137 44.1855 236.137 43.343C236.137 42.4568 236.329 41.6964 236.712 41.0618C237.105 40.4163 237.625 39.924 238.271 39.5848C238.927 39.2457 239.649 39.0761 240.437 39.0761C241.258 39.0761 241.991 39.2566 242.636 39.6176C243.282 39.9678 243.79 40.4601 244.162 41.0947C244.545 41.7292 244.737 42.4787 244.737 43.343C244.737 44.1636 244.551 44.8966 244.179 45.5421C243.807 46.1876 243.293 46.6964 242.636 47.0684C241.991 47.4294 241.236 47.61 240.371 47.61ZM240.404 45.7883C240.842 45.7883 241.219 45.6789 241.537 45.4601C241.865 45.2303 242.122 44.9294 242.308 44.5575C242.494 44.1745 242.587 43.7588 242.587 43.3102C242.587 42.796 242.483 42.3583 242.275 41.9973C242.078 41.6362 241.816 41.3627 241.487 41.1767C241.159 40.9907 240.798 40.8977 240.404 40.8977C239.977 40.8977 239.6 41.0017 239.272 41.2095C238.954 41.4174 238.703 41.7074 238.517 42.0793C238.342 42.4404 238.254 42.8616 238.254 43.343C238.254 43.8244 238.347 44.2511 238.533 44.6231C238.73 44.9951 238.993 45.285 239.321 45.4929C239.649 45.6898 240.01 45.7883 240.404 45.7883ZM245.952 47.413V39.273H248.036V40.2085C248.309 39.8255 248.66 39.5411 249.086 39.3551C249.513 39.1691 249.962 39.0761 250.432 39.0761C251.045 39.0761 251.614 39.2074 252.139 39.4699C252.675 39.7216 253.091 40.1209 253.386 40.668C253.66 40.1647 254.037 39.7763 254.518 39.5028C255.011 39.2183 255.547 39.0761 256.127 39.0761C256.75 39.0761 257.314 39.2074 257.817 39.4699C258.331 39.7216 258.736 40.11 259.031 40.6351C259.327 41.1603 259.475 41.8168 259.475 42.6045V47.413H257.39V42.8999C257.39 42.2872 257.243 41.8004 256.947 41.4393C256.652 41.0783 256.198 40.8977 255.585 40.8977C254.983 40.8977 254.529 41.0783 254.223 41.4393C253.917 41.8004 253.763 42.2872 253.763 42.8999V47.413H251.679V42.8999C251.679 42.2763 251.521 41.7894 251.203 41.4393C250.897 41.0783 250.454 40.8977 249.874 40.8977C249.382 40.8977 248.949 41.0564 248.577 41.3737C248.216 41.68 248.036 42.1888 248.036 42.8999V47.413H245.952Z" fill="#FFDD01"/>
</svg>
